<svg width="101" height="101" viewBox="0 0 101 101" fill="none" xmlns="http://www.w3.org/2000/svg">
<g clip-path="url(#clip0_40_163)">
<path d="M28.5298 74.85C29.3398 74.13 30.2098 73.19 31.2498 72.47C32.6198 71.53 34.1098 70.78 35.5398 69.95C36.4698 69.41 37.4098 68.87 38.3198 68.3C40.0198 67.23 41.6498 66.04 43.4098 65.09C45.1198 64.17 46.9898 63.72 48.9698 64.14C51.9598 64.77 53.4298 67.56 52.2798 70.39C51.6098 72.02 50.3798 73.09 48.8898 73.95C46.7198 75.2 44.5698 76.48 42.4098 77.75C42.2598 77.84 42.1298 77.95 41.8698 78.14C42.1498 78.19 42.2998 78.23 42.4398 78.24C46.0198 78.44 49.6098 78.68 53.1998 78.79C54.0398 78.81 54.9998 78.54 55.7098 78.09C59.3998 75.77 63.0298 73.35 66.6798 70.95C68.1598 69.98 69.7498 69.33 71.5498 69.4C73.3098 69.47 74.7498 70.09 75.3398 71.76C76.7198 71.71 78.0398 71.57 79.3398 71.65C80.0098 71.69 80.7198 72.02 81.2998 72.39C82.7798 73.35 83.1098 75.05 82.1198 76.52C81.7798 77.02 81.3498 77.52 80.8598 77.86C73.9698 82.64 67.0698 87.4 60.1598 92.15C57.6898 93.85 54.9898 94.55 51.9498 94.54C44.3998 94.51 36.8398 94.72 29.2898 94.81C28.6998 94.82 28.3098 95 27.8498 95.39C27.2998 95.85 26.4998 96.19 25.7898 96.24C23.7798 96.37 21.7698 96.35 19.7598 96.34C18.2998 96.33 17.1498 95.22 17.1298 93.76C17.0598 87.91 17.0298 82.05 17.0098 76.2C17.0098 74.77 17.8998 73.72 19.3198 73.64C21.5998 73.5 23.8998 73.43 26.1798 73.56C26.9398 73.59 27.6598 74.35 28.5298 74.85ZM28.6398 92.23C28.8098 92.25 28.9298 92.29 29.0398 92.29C37.2098 92.19 45.3798 92.07 53.5498 91.99C54.9298 91.98 56.1498 91.57 57.3198 90.9C65.0998 86.45 72.1898 80.98 79.4598 75.79C79.7698 75.57 80.1698 74.99 80.0798 74.78C79.9298 74.44 79.4298 74.15 79.0298 74.05C77.6998 73.72 76.4698 74.12 75.2798 74.71C71.3798 76.65 67.4798 78.61 63.5598 80.5C62.7698 80.88 61.8698 81.12 60.9998 81.23C59.8098 81.38 58.5898 81.4 57.3898 81.38C51.5098 81.26 45.6398 81 39.8498 79.88C38.5198 79.62 38.0198 78.72 38.8898 77.68C39.4898 76.95 40.2298 76.29 41.0298 75.78C43.1998 74.41 45.4398 73.16 47.6298 71.82C48.2798 71.42 48.9298 70.96 49.4398 70.41C50.1698 69.62 50.5398 68.64 50.0098 67.6C49.4698 66.53 48.4198 66.44 47.3698 66.47C47.2198 66.47 47.0698 66.52 46.9098 66.54C44.9598 66.85 43.2998 67.81 41.7298 68.92C39.6598 70.39 37.6598 71.95 35.2098 72.78C34.7198 72.94 34.2598 73.25 33.8598 73.58C32.2598 74.94 30.6998 76.35 29.0898 77.71C28.6098 78.11 28.4598 78.54 28.4698 79.15C28.5198 83.24 28.5398 87.32 28.5798 91.41C28.5898 91.67 28.6198 91.94 28.6398 92.23ZM19.5498 75.9C19.4698 76.24 19.4098 76.35 19.4198 76.47C19.4398 82.07 19.4798 87.67 19.4998 93.26C19.4998 93.85 19.8198 93.89 20.2698 93.88C21.8798 93.84 23.4798 93.77 25.0898 93.79C25.9198 93.8 26.1998 93.58 26.1798 92.7C26.0998 88.56 26.0898 84.41 26.0498 80.27C26.0398 79.03 26.0598 77.8 26.0098 76.56C25.9998 76.33 25.6898 75.92 25.4998 75.92C23.5198 75.88 21.5098 75.9 19.5498 75.9ZM59.1798 78.82C59.5498 78.85 59.6898 78.86 59.8298 78.87C61.2598 78.99 62.4598 78.35 63.6798 77.74C66.4898 76.33 69.3298 74.96 72.1198 73.52C72.4698 73.34 72.6698 72.86 72.9298 72.52C72.5898 72.31 72.2698 71.98 71.8998 71.91C70.5398 71.66 69.3498 72.17 68.2398 72.89C66.0098 74.33 63.7898 75.79 61.5698 77.25C60.8298 77.72 60.0998 78.21 59.1798 78.82Z" fill="black" stroke="black" stroke-width="0.8" stroke-miterlimit="10"/>
<path d="M58.4998 62.1501C58.3398 62.0901 58.0098 61.9901 57.7198 61.8401C56.3198 61.1201 54.9098 60.4101 53.5298 59.6401C53.0598 59.3801 52.7098 59.4001 52.2598 59.6501C50.8798 60.4101 49.4898 61.1701 48.0598 61.8201C47.5998 62.0301 46.8998 62.0601 46.4398 61.8701C45.8198 61.6201 45.8798 60.9301 45.9998 60.3201C46.2798 58.8001 46.5798 57.2801 46.7698 55.7501C46.8198 55.3401 46.6398 54.7801 46.3598 54.4701C45.2898 53.3201 44.0898 52.2701 43.0198 51.1101C42.6898 50.7501 42.3598 50.0501 42.4998 49.6901C42.6698 49.2701 43.3098 48.8801 43.8098 48.7801C45.3798 48.4601 46.9898 48.3001 48.5698 48.0101C48.9198 47.9501 49.3298 47.6401 49.4998 47.3301C50.2498 45.9501 50.9298 44.5201 51.6298 43.1101C51.8998 42.5701 52.1898 41.9201 52.8698 42.0901C53.3498 42.2101 53.8798 42.6501 54.1398 43.0901C54.8998 44.4301 55.5598 45.8301 56.2198 47.2301C56.4498 47.7201 56.7198 47.9801 57.2998 48.0501C58.8998 48.2301 60.4898 48.4601 62.0698 48.7801C62.5198 48.8701 63.1498 49.2301 63.2498 49.5901C63.3698 50.0101 63.1298 50.6901 62.8098 51.0401C61.7298 52.2301 60.5598 53.3401 59.3898 54.4401C58.9798 54.8201 58.8598 55.2001 58.9698 55.7501C59.2798 57.3301 59.5498 58.9101 59.8098 60.5001C59.9698 61.4801 59.4998 62.1301 58.4998 62.1501ZM59.5798 50.8601C58.2698 50.6701 57.2098 50.4901 56.1498 50.3801C55.2998 50.2901 54.7398 49.9101 54.3998 49.1001C53.9698 48.0901 53.4298 47.1301 52.8798 46.0301C52.3298 47.1301 51.7898 48.0701 51.3698 49.0701C51.0098 49.9201 50.4298 50.3001 49.5398 50.3901C48.4798 50.5001 47.4398 50.6801 46.1998 50.8601C47.1198 51.7701 47.8998 52.5601 48.7098 53.3101C49.2898 53.8401 49.5098 54.4101 49.3298 55.2101C49.0798 56.3001 48.9598 57.4101 48.7698 58.6701C49.9098 58.0801 50.8798 57.6201 51.8098 57.0701C52.5298 56.6501 53.1698 56.6501 53.8998 57.0601C54.8498 57.6001 55.8398 58.0701 56.9698 58.6501C56.7698 57.4301 56.6598 56.3801 56.4198 55.3601C56.2098 54.4701 56.4298 53.8101 57.1098 53.2201C57.8998 52.5201 58.6498 51.7501 59.5798 50.8601Z" fill="black" stroke="black" stroke-width="0.8" stroke-miterlimit="10"/>
<path d="M65.7798 49.06C65.9898 47.84 66.2498 46.47 66.4298 45.09C66.4698 44.76 66.3298 44.3 66.0998 44.06C65.2098 43.11 64.2098 42.27 63.3498 41.3C63.0298 40.94 62.7798 40.27 62.8998 39.84C62.9998 39.47 63.6098 39.09 64.0598 38.99C65.3298 38.71 66.6298 38.61 67.8998 38.35C68.2498 38.28 68.6498 37.97 68.8298 37.66C69.4498 36.56 69.9298 35.37 70.5798 34.29C70.8298 33.88 71.3798 33.42 71.8098 33.4C72.1898 33.38 72.7398 33.86 72.9698 34.25C73.6098 35.34 74.0898 36.53 74.7098 37.63C74.8998 37.97 75.3298 38.3 75.6998 38.38C76.9398 38.64 78.2198 38.72 79.4498 39C79.9198 39.11 80.5498 39.5 80.6698 39.89C80.7898 40.29 80.4898 40.95 80.1698 41.32C79.3998 42.21 78.5498 43.03 77.6598 43.8C77.1098 44.28 77.0298 44.78 77.1498 45.43C77.3698 46.58 77.6198 47.74 77.7198 48.91C77.7598 49.39 77.5798 50.07 77.2498 50.35C76.9598 50.59 76.2398 50.53 75.8198 50.34C74.6898 49.85 73.5998 49.24 72.5298 48.63C72.0198 48.34 71.5998 48.32 71.0798 48.61C69.9498 49.25 68.7998 49.85 67.6298 50.42C66.5798 50.93 65.7398 50.35 65.7798 49.06ZM71.7898 37.33C71.4098 38.1 71.0398 38.74 70.7698 39.42C70.4198 40.31 69.7898 40.7 68.8598 40.76C68.1798 40.81 67.4998 40.96 66.6998 41.09C67.3598 41.76 67.8798 42.33 68.4398 42.86C68.9898 43.37 69.2098 43.92 69.0198 44.69C68.8298 45.45 68.7598 46.23 68.6098 47.16C69.4498 46.72 70.1498 46.39 70.8098 46C71.4598 45.62 72.0698 45.6 72.7298 45.98C73.4098 46.37 74.1198 46.71 74.8898 47.1C74.7698 45.86 74.3398 44.65 74.6498 43.69C74.9598 42.73 76.0198 42.01 76.8298 41.08C76.0898 40.96 75.4398 40.81 74.7698 40.77C73.8098 40.71 73.1498 40.34 72.7998 39.39C72.5698 38.75 72.2098 38.16 71.7898 37.33Z" fill="black" stroke="black" stroke-width="0.8" stroke-miterlimit="10"/>
<path d="M38.5696 48.8601C38.2596 48.7101 37.8096 48.5101 37.3696 48.2901C36.2396 47.7201 35.1196 46.7 33.9896 46.69C32.8596 46.69 31.7396 47.7101 30.5996 48.2701C29.9296 48.6001 29.2796 49.2101 28.4596 48.6601C27.5796 48.0701 27.9996 47.2201 28.0796 46.4501C28.1196 46.0501 28.1396 45.63 28.2796 45.26C28.9896 43.41 28.4496 42.0101 26.8696 40.9001C26.3496 40.5301 25.8696 40.05 25.4896 39.53C25.2096 39.14 24.8896 38.52 25.0196 38.17C25.1696 37.76 25.7596 37.3601 26.2296 37.2501C27.4596 36.9701 28.7396 36.89 29.9796 36.63C30.3596 36.55 30.8096 36.2401 30.9996 35.9101C31.6296 34.8101 32.0996 33.6201 32.7396 32.5301C32.9796 32.1201 33.5396 31.6901 33.9796 31.6701C34.3596 31.6501 34.8996 32.1201 35.1296 32.5101C35.7796 33.6301 36.2896 34.84 36.9196 35.97C37.0796 36.26 37.4696 36.5501 37.7996 36.6201C39.0396 36.8701 40.3196 36.9601 41.5496 37.2301C42.0296 37.3401 42.5996 37.6701 42.8396 38.0701C43.1796 38.6301 42.7796 39.1701 42.3196 39.6101C41.4196 40.4601 40.5096 41.3101 39.6896 42.2301C39.4296 42.5201 39.2596 43.04 39.3096 43.42C39.4596 44.71 39.7496 45.98 39.9296 47.26C40.0796 48.22 39.5396 48.9001 38.5696 48.8601ZM30.6496 45.2701C30.7596 45.2801 30.8696 45.2801 30.9796 45.2901C31.5196 45.0101 32.0996 44.78 32.6096 44.44C33.5096 43.84 34.3396 43.7901 35.2596 44.4101C35.8096 44.7801 36.4496 45.0201 37.1396 45.3801C36.9996 44.5001 36.9396 43.7301 36.7496 42.9901C36.5296 42.1501 36.7896 41.5401 37.4096 41.0201C37.9896 40.5401 38.5696 40.0501 39.1396 39.5601C38.1496 39.1901 37.3996 39.02 36.6296 38.96C35.8196 38.9 35.3496 38.4901 35.0296 37.7701C34.7196 37.0701 34.3496 36.4101 33.9396 35.6101C33.4996 36.4801 33.2096 37.27 32.7396 37.94C32.4396 38.36 31.9196 38.7401 31.4196 38.9001C30.6296 39.1501 29.7796 39.2001 28.9596 39.3301C28.8996 39.3901 28.8396 39.4501 28.7796 39.5201C31.1596 40.8601 31.8096 42.7701 30.6496 45.2701Z" fill="black" stroke="black" stroke-width="0.8" stroke-miterlimit="10"/>
<path d="M61.9198 27.71C61.7798 27.93 61.6098 28.33 61.3198 28.62C60.4398 29.53 59.4798 30.37 58.6298 31.31C58.3698 31.6 58.2098 32.12 58.2598 32.51C58.3998 33.74 58.7198 34.94 58.8398 36.17C58.8898 36.66 58.7298 37.37 58.3898 37.62C58.0598 37.87 57.3298 37.8 56.8898 37.62C55.7798 37.15 54.7198 36.56 53.6798 35.95C53.0998 35.6 52.6398 35.65 52.0698 35.98C51.0298 36.58 49.9598 37.16 48.8598 37.64C48.4398 37.82 47.7298 37.89 47.4298 37.66C47.0898 37.38 46.8798 36.7 46.9198 36.23C47.0198 35.03 47.2698 33.85 47.5098 32.66C47.6298 32.06 47.5498 31.62 47.0598 31.19C46.1398 30.36 45.2398 29.5 44.4198 28.58C44.1098 28.23 43.8198 27.57 43.9498 27.22C44.1098 26.81 44.6998 26.42 45.1698 26.31C46.3998 26.03 47.6798 25.95 48.9198 25.69C49.2998 25.61 49.7298 25.29 49.9298 24.95C50.5598 23.85 51.0298 22.66 51.6698 21.57C51.8998 21.18 52.4398 20.71 52.8198 20.73C53.2498 20.75 53.8098 21.19 54.0498 21.6C54.6898 22.66 55.1998 23.79 55.7298 24.91C55.9598 25.4 56.2198 25.67 56.8198 25.73C58.0798 25.85 59.3298 26.08 60.5798 26.27C61.3098 26.39 61.8098 26.72 61.9198 27.71ZM52.9498 24.49C52.4598 25.49 52.0998 26.14 51.8098 26.82C51.4898 27.59 50.9498 27.97 50.1298 28.05C49.3898 28.12 48.6498 28.26 47.7198 28.4C48.3898 29.06 48.8898 29.61 49.4498 30.09C50.1098 30.66 50.2898 31.32 50.0798 32.16C49.8998 32.86 49.8398 33.6 49.7098 34.46C50.5498 34.02 51.2798 33.69 51.9598 33.28C52.5898 32.9 53.1598 32.92 53.7798 33.29C54.4598 33.69 55.1798 34.02 56.0298 34.45C55.8998 33.6 55.8498 32.89 55.6698 32.21C55.4098 31.28 55.6798 30.6 56.3898 29.99C56.9298 29.53 57.4098 29 57.9098 28.5C57.9098 28.39 57.9098 28.28 57.9098 28.17C55.0498 28.7 53.6598 27.19 52.9498 24.49Z" fill="black" stroke="black" stroke-width="0.8" stroke-miterlimit="10"/>
<path d="M38.1296 8.71997C38.3196 8.89997 38.8396 9.16997 38.9996 9.57997C40.0196 12.14 40.9696 14.72 41.9196 17.3C42.1996 18.06 41.8696 18.79 41.2096 18.97C40.4196 19.19 39.8796 18.85 39.5996 18.1C38.6496 15.55 37.6896 13.01 36.7596 10.45C36.4296 9.54997 36.9496 8.75997 38.1296 8.71997Z" fill="black" stroke="black" stroke-width="0.8" stroke-miterlimit="10"/>
<path d="M69.1997 9.72006C69.0797 10.1501 69.0297 10.3601 68.9497 10.5601C68.0197 13.0501 67.0997 15.5501 66.1597 18.0301C65.8097 18.9601 64.9997 19.3801 64.3797 18.8601C64.0297 18.5701 63.6897 17.8401 63.8097 17.4701C64.7197 14.7801 65.7397 12.1201 66.7597 9.47006C66.9997 8.85006 67.5797 8.54006 68.1997 8.80006C68.6197 8.98006 68.9197 9.44006 69.1997 9.72006Z" fill="black" stroke="black" stroke-width="0.8" stroke-miterlimit="10"/>
<path d="M24.6896 16.33C25.1396 16.63 25.5196 16.79 25.7696 17.07C27.5496 19.09 29.2996 21.13 31.0596 23.17C31.5796 23.77 31.6396 24.4 31.0596 24.99C30.5296 25.53 29.7996 25.44 29.2096 24.76C27.4396 22.74 25.6596 20.72 23.9496 18.64C23.6696 18.31 23.5796 17.65 23.6896 17.22C23.7696 16.88 24.2996 16.65 24.6896 16.33Z" fill="black" stroke="black" stroke-width="0.8" stroke-miterlimit="10"/>
<path d="M75.4099 25.4801C75.0299 25.1601 74.5099 24.9401 74.4399 24.6301C74.3399 24.1901 74.4199 23.5501 74.6899 23.2101C76.1299 21.4301 77.6499 19.7301 79.1499 18.0001C79.4499 17.6501 79.7399 17.2801 80.0699 16.9601C80.5999 16.4301 81.2299 16.3301 81.7999 16.8401C82.3699 17.3501 82.3599 18.0101 81.8799 18.5801C80.0999 20.6701 78.2899 22.7501 76.4699 24.8101C76.2299 25.0801 75.8299 25.2201 75.4099 25.4801Z" fill="black" stroke="black" stroke-width="0.8" stroke-miterlimit="10"/>
<path d="M54.0796 11.46C54.0796 12.76 54.0896 14.06 54.0796 15.36C54.0696 16.32 53.5996 16.89 52.8396 16.88C52.1096 16.87 51.6496 16.33 51.6496 15.42C51.6396 12.76 51.6396 10.1 51.6496 7.43001C51.6496 6.53001 52.1396 5.99001 52.8696 6.00001C53.5896 6.01001 54.0696 6.57001 54.0796 7.46001C54.0896 8.80001 54.0796 10.13 54.0796 11.46Z" fill="black" stroke="black" stroke-width="0.8" stroke-miterlimit="10"/>
</g>
<rect x="0.5" y="0.5" width="100" height="100" rx="10" fill="#4CC9F0" fill-opacity="0.33"/>
<defs>
<clipPath id="clip0_40_163">
<rect width="66.68" height="91.34" fill="white" transform="translate(16.5 5.5)"/>
</clipPath>
</defs>
</svg>
