<svg width="41" height="16" viewBox="0 0 41 16" fill="none" xmlns="http://www.w3.org/2000/svg">
<path d="M3.58274 15H0.45206L5.2223 1.18182H8.98722L13.7507 15H10.62L7.15874 4.33949H7.05078L3.58274 15ZM3.38707 9.56854H10.782V11.8491H3.38707V9.56854ZM15.4139 15V1.18182H20.9466C21.9631 1.18182 22.811 1.3325 23.4902 1.63388C24.1694 1.93525 24.68 2.35357 25.0218 2.88885C25.3637 3.41963 25.5346 4.03137 25.5346 4.72408C25.5346 5.26385 25.4267 5.7384 25.2108 6.14773C24.9949 6.55256 24.698 6.88542 24.3201 7.14631C23.9468 7.4027 23.5195 7.58487 23.0382 7.69283V7.82777C23.5645 7.85026 24.057 7.9987 24.5158 8.27308C24.9791 8.54747 25.3547 8.93205 25.6426 9.42685C25.9305 9.91714 26.0744 10.5019 26.0744 11.1811C26.0744 11.9143 25.8922 12.5688 25.5279 13.1445C25.168 13.7158 24.635 14.1679 23.9288 14.5007C23.2226 14.8336 22.3522 15 21.3176 15H15.4139ZM18.3354 12.6115H20.7172C21.5313 12.6115 22.1251 12.4563 22.4984 12.146C22.8717 11.8311 23.0584 11.4128 23.0584 10.891C23.0584 10.5086 22.9662 10.1713 22.7818 9.87891C22.5974 9.58653 22.3342 9.35713 21.9924 9.1907C21.655 9.02427 21.2524 8.94105 20.7846 8.94105H18.3354V12.6115ZM18.3354 6.96413H20.5012C20.9016 6.96413 21.2569 6.89441 21.5673 6.75497C21.8822 6.61103 22.1296 6.40862 22.3095 6.14773C22.4939 5.88684 22.5861 5.57422 22.5861 5.20987C22.5861 4.71058 22.4084 4.308 22.0531 4.00213C21.7022 3.69626 21.2029 3.54332 20.5552 3.54332H18.3354V6.96413ZM40.1675 6.01953H37.2123C37.1583 5.63719 37.0481 5.29758 36.8817 5.00071C36.7152 4.69934 36.5016 4.44294 36.2407 4.23153C35.9798 4.02012 35.6784 3.85819 35.3366 3.74574C34.9992 3.63329 34.6326 3.57706 34.2368 3.57706C33.5216 3.57706 32.8986 3.75473 32.3678 4.11008C31.837 4.46094 31.4255 4.97372 31.1331 5.64844C30.8407 6.31865 30.6945 7.13281 30.6945 8.09091C30.6945 9.07599 30.8407 9.90365 31.1331 10.5739C31.43 11.2441 31.8438 11.7501 32.3746 12.092C32.9053 12.4338 33.5193 12.6048 34.2165 12.6048C34.6079 12.6048 34.97 12.553 35.3028 12.4496C35.6402 12.3461 35.9393 12.1954 36.2002 11.9975C36.4611 11.7951 36.677 11.55 36.8479 11.2621C37.0233 10.9742 37.1448 10.6458 37.2123 10.277L40.1675 10.2905C40.0911 10.9247 39.8999 11.5365 39.594 12.1257C39.2926 12.7105 38.8856 13.2345 38.3728 13.6978C37.8645 14.1566 37.2573 14.521 36.551 14.7908C35.8493 15.0562 35.0554 15.1889 34.1693 15.1889C32.9368 15.1889 31.8348 14.91 30.8632 14.3523C29.8961 13.7945 29.1314 12.9871 28.5692 11.93C28.0114 10.873 27.7325 9.59328 27.7325 8.09091C27.7325 6.58404 28.0159 5.30208 28.5827 4.24503C29.1494 3.18797 29.9186 2.38281 30.8902 1.82955C31.8618 1.27178 32.9548 0.992897 34.1693 0.992897C34.97 0.992897 35.7122 1.10535 36.3959 1.33026C37.0841 1.55516 37.6936 1.88352 38.2243 2.31534C38.7551 2.74266 39.1869 3.26669 39.5198 3.88743C39.8572 4.50817 40.0731 5.21887 40.1675 6.01953Z" fill="#7209B7"/>
</svg>
