<svg width="304" height="32" viewBox="0 0 304 32" fill="none" xmlns="http://www.w3.org/2000/svg">
<path d="M1.04 24C0.805334 24 0.613334 23.9253 0.464 23.776C0.314667 23.6053 0.24 23.4133 0.24 23.2V2.4C0.24 2.16533 0.314667 1.97333 0.464 1.824C0.613334 1.67467 0.805334 1.6 1.04 1.6H5.264C5.49867 1.6 5.69067 1.67467 5.84 1.824C5.98933 1.97333 6.064 2.16533 6.064 2.4V19.168H15.76C15.9947 19.168 16.1867 19.2533 16.336 19.424C16.4853 19.5733 16.56 19.7653 16.56 20V23.2C16.56 23.4133 16.4853 23.6053 16.336 23.776C16.1867 23.9253 15.9947 24 15.76 24H1.04ZM23.9738 24.32C22.8218 24.32 21.7871 24.1067 20.8698 23.68C19.9738 23.232 19.2591 22.6347 18.7258 21.888C18.1924 21.1413 17.9258 20.2987 17.9258 19.36C17.9258 17.8453 18.5444 16.6507 19.7818 15.776C21.0191 14.88 22.6618 14.272 24.7098 13.952L28.7098 13.344V12.896C28.7098 12.128 28.5498 11.5413 28.2298 11.136C27.9098 10.7307 27.3231 10.528 26.4698 10.528C25.8724 10.528 25.3818 10.6453 24.9978 10.88C24.6351 11.1147 24.3471 11.4347 24.1338 11.84C23.9418 12.1173 23.6751 12.256 23.3338 12.256H19.7498C19.5151 12.256 19.3338 12.192 19.2057 12.064C19.0778 11.9147 19.0244 11.744 19.0458 11.552C19.0458 11.168 19.1844 10.7307 19.4618 10.24C19.7604 9.728 20.2084 9.22667 20.8058 8.736C21.4031 8.24533 22.1711 7.84 23.1098 7.52C24.0484 7.2 25.1898 7.04 26.5338 7.04C27.8991 7.04 29.0724 7.2 30.0538 7.52C31.0351 7.84 31.8351 8.288 32.4538 8.864C33.0724 9.44 33.5204 10.1227 33.7978 10.912C34.0964 11.68 34.2458 12.5333 34.2458 13.472V23.2C34.2458 23.4133 34.1604 23.6053 33.9897 23.776C33.8404 23.9253 33.6591 24 33.4458 24H29.7338C29.4991 24 29.3071 23.9253 29.1578 23.776C29.0084 23.6053 28.9338 23.4133 28.9338 23.2V22.08C28.6564 22.4853 28.2831 22.8587 27.8138 23.2C27.3444 23.5413 26.7898 23.808 26.1498 24C25.5311 24.2133 24.8058 24.32 23.9738 24.32ZM25.4778 20.672C26.0964 20.672 26.6511 20.544 27.1418 20.288C27.6538 20.0107 28.0484 19.5947 28.3258 19.04C28.6244 18.464 28.7738 17.7493 28.7738 16.896V16.448L26.0538 16.928C25.0511 17.0987 24.3151 17.3653 23.8458 17.728C23.3978 18.0693 23.1738 18.4747 23.1738 18.944C23.1738 19.3067 23.2804 19.616 23.4938 19.872C23.7071 20.128 23.9844 20.3307 24.3258 20.48C24.6884 20.608 25.0724 20.672 25.4778 20.672ZM38.6568 24C38.4221 24 38.2301 23.9253 38.0807 23.776C37.9314 23.6053 37.8568 23.4133 37.8568 23.2V8.16C37.8568 7.92533 37.9314 7.73333 38.0807 7.584C38.2301 7.43467 38.4221 7.36 38.6568 7.36H42.3368C42.5714 7.36 42.7634 7.43467 42.9128 7.584C43.0834 7.73333 43.1688 7.92533 43.1688 8.16V9.376C43.7021 8.71467 44.4168 8.16 45.3128 7.712C46.2088 7.264 47.2648 7.04 48.4808 7.04C49.7181 7.04 50.8061 7.31733 51.7448 7.872C52.7048 8.42667 53.4514 9.23733 53.9848 10.304C54.5394 11.3707 54.8168 12.6933 54.8168 14.272V23.2C54.8168 23.4133 54.7421 23.6053 54.5928 23.776C54.4434 23.9253 54.2514 24 54.0168 24H49.9848C49.7714 24 49.5794 23.9253 49.4088 23.776C49.2594 23.6053 49.1848 23.4133 49.1848 23.2V14.464C49.1848 13.4613 48.9394 12.6933 48.4488 12.16C47.9794 11.6053 47.2754 11.328 46.3368 11.328C45.4621 11.328 44.7581 11.6053 44.2248 12.16C43.7128 12.6933 43.4568 13.4613 43.4568 14.464V23.2C43.4568 23.4133 43.3714 23.6053 43.2008 23.776C43.0514 23.9253 42.8701 24 42.6568 24H38.6568ZM66.5793 31.04C64.9366 31.04 63.5713 30.8267 62.4833 30.4C61.4166 29.9733 60.5633 29.4613 59.9233 28.864C59.3046 28.2667 58.8566 27.6693 58.5793 27.072C58.3019 26.496 58.1526 26.0373 58.1313 25.696C58.1099 25.4613 58.1846 25.2587 58.3553 25.088C58.5259 24.9387 58.7286 24.864 58.9633 24.864H63.0273C63.2406 24.864 63.4113 24.9173 63.5393 25.024C63.6673 25.1307 63.7739 25.3013 63.8593 25.536C63.9873 25.7707 64.1366 26.0053 64.3073 26.24C64.4779 26.496 64.7233 26.7093 65.0433 26.88C65.3846 27.0507 65.8433 27.136 66.4193 27.136C67.0593 27.136 67.5926 27.0293 68.0193 26.816C68.4459 26.624 68.7659 26.2933 68.9793 25.824C69.1926 25.376 69.2993 24.768 69.2993 24V21.856C68.8086 22.3893 68.1793 22.8267 67.4113 23.168C66.6433 23.488 65.7153 23.648 64.6273 23.648C63.5393 23.648 62.5793 23.488 61.7473 23.168C60.9153 22.848 60.2219 22.368 59.6673 21.728C59.1126 21.088 58.6753 20.3093 58.3553 19.392C58.0566 18.4747 57.8753 17.4187 57.8113 16.224C57.7899 15.6693 57.7899 15.104 57.8113 14.528C57.8753 13.3973 58.0566 12.3733 58.3553 11.456C58.6539 10.5173 59.0806 9.728 59.6353 9.088C60.2113 8.42667 60.9153 7.92533 61.7473 7.584C62.5793 7.22133 63.5393 7.04 64.6273 7.04C65.7793 7.04 66.7606 7.264 67.5713 7.712C68.4033 8.13867 69.0859 8.68267 69.6193 9.344V8.16C69.6193 7.94667 69.6939 7.76533 69.8433 7.616C69.9926 7.44533 70.1846 7.36 70.4193 7.36H74.0993C74.3339 7.36 74.5259 7.44533 74.6753 7.616C74.8459 7.76533 74.9313 7.94667 74.9313 8.16V23.552C74.9313 25.1733 74.6006 26.5387 73.9393 27.648C73.2993 28.7573 72.3499 29.6 71.0913 30.176C69.8539 30.752 68.3499 31.04 66.5793 31.04ZM66.3553 19.488C67.0379 19.488 67.5926 19.3387 68.0193 19.04C68.4459 18.7413 68.7553 18.3573 68.9473 17.888C69.1606 17.4187 69.2779 16.9173 69.2993 16.384C69.3206 16.1493 69.3313 15.8187 69.3313 15.392C69.3313 14.9653 69.3206 14.6453 69.2993 14.432C69.2779 13.8773 69.1606 13.3653 68.9473 12.896C68.7553 12.4267 68.4459 12.0533 68.0193 11.776C67.5926 11.4773 67.0379 11.328 66.3553 11.328C65.6513 11.328 65.0859 11.4773 64.6593 11.776C64.2539 12.0747 63.9553 12.48 63.7633 12.992C63.5926 13.504 63.4859 14.0693 63.4433 14.688C63.4219 15.1573 63.4219 15.6373 63.4433 16.128C63.4859 16.7467 63.5926 17.312 63.7633 17.824C63.9553 18.336 64.2539 18.7413 64.6593 19.04C65.0859 19.3387 65.6513 19.488 66.3553 19.488ZM84.8125 24.32C83.5965 24.32 82.5085 24.0427 81.5485 23.488C80.6098 22.9333 79.8738 22.1227 79.3405 21.056C78.8072 19.968 78.5405 18.6453 78.5405 17.088V8.16C78.5405 7.92533 78.6152 7.73333 78.7645 7.584C78.9138 7.43467 79.1058 7.36 79.3405 7.36H83.3405C83.5752 7.36 83.7672 7.43467 83.9165 7.584C84.0872 7.73333 84.1725 7.92533 84.1725 8.16V16.896C84.1725 18.9867 85.1005 20.032 86.9565 20.032C87.8312 20.032 88.5245 19.7653 89.0365 19.232C89.5698 18.6773 89.8365 17.8987 89.8365 16.896V8.16C89.8365 7.92533 89.9112 7.73333 90.0605 7.584C90.2098 7.43467 90.4018 7.36 90.6365 7.36H94.6365C94.8712 7.36 95.0632 7.43467 95.2125 7.584C95.3618 7.73333 95.4365 7.92533 95.4365 8.16V23.2C95.4365 23.4133 95.3618 23.6053 95.2125 23.776C95.0632 23.9253 94.8712 24 94.6365 24H90.9245C90.7112 24 90.5192 23.9253 90.3485 23.776C90.1992 23.6053 90.1245 23.4133 90.1245 23.2V21.984C89.5698 22.752 88.8445 23.3387 87.9485 23.744C87.0738 24.128 86.0285 24.32 84.8125 24.32ZM104.193 24.32C103.041 24.32 102.006 24.1067 101.089 23.68C100.193 23.232 99.4778 22.6347 98.9445 21.888C98.4112 21.1413 98.1445 20.2987 98.1445 19.36C98.1445 17.8453 98.7632 16.6507 100.001 15.776C101.238 14.88 102.881 14.272 104.929 13.952L108.929 13.344V12.896C108.929 12.128 108.769 11.5413 108.449 11.136C108.129 10.7307 107.542 10.528 106.689 10.528C106.091 10.528 105.601 10.6453 105.217 10.88C104.854 11.1147 104.566 11.4347 104.353 11.84C104.161 12.1173 103.894 12.256 103.553 12.256H99.9685C99.7338 12.256 99.5525 12.192 99.4245 12.064C99.2965 11.9147 99.2432 11.744 99.2645 11.552C99.2645 11.168 99.4032 10.7307 99.6805 10.24C99.9792 9.728 100.427 9.22667 101.025 8.736C101.622 8.24533 102.39 7.84 103.329 7.52C104.267 7.2 105.409 7.04 106.753 7.04C108.118 7.04 109.291 7.2 110.273 7.52C111.254 7.84 112.054 8.288 112.673 8.864C113.291 9.44 113.739 10.1227 114.017 10.912C114.315 11.68 114.465 12.5333 114.465 13.472V23.2C114.465 23.4133 114.379 23.6053 114.208 23.776C114.059 23.9253 113.878 24 113.665 24H109.953C109.718 24 109.526 23.9253 109.377 23.776C109.227 23.6053 109.153 23.4133 109.153 23.2V22.08C108.875 22.4853 108.502 22.8587 108.033 23.2C107.563 23.5413 107.009 23.808 106.369 24C105.75 24.2133 105.025 24.32 104.193 24.32ZM105.697 20.672C106.315 20.672 106.87 20.544 107.361 20.288C107.873 20.0107 108.267 19.5947 108.545 19.04C108.843 18.464 108.993 17.7493 108.993 16.896V16.448L106.273 16.928C105.27 17.0987 104.534 17.3653 104.065 17.728C103.617 18.0693 103.393 18.4747 103.393 18.944C103.393 19.3067 103.499 19.616 103.713 19.872C103.926 20.128 104.203 20.3307 104.545 20.48C104.907 20.608 105.291 20.672 105.697 20.672ZM126.236 31.04C124.593 31.04 123.228 30.8267 122.14 30.4C121.073 29.9733 120.22 29.4613 119.58 28.864C118.961 28.2667 118.513 27.6693 118.236 27.072C117.958 26.496 117.809 26.0373 117.788 25.696C117.766 25.4613 117.841 25.2587 118.012 25.088C118.182 24.9387 118.385 24.864 118.62 24.864H122.684C122.897 24.864 123.068 24.9173 123.196 25.024C123.324 25.1307 123.43 25.3013 123.516 25.536C123.644 25.7707 123.793 26.0053 123.964 26.24C124.134 26.496 124.38 26.7093 124.7 26.88C125.041 27.0507 125.5 27.136 126.076 27.136C126.716 27.136 127.249 27.0293 127.676 26.816C128.102 26.624 128.422 26.2933 128.636 25.824C128.849 25.376 128.956 24.768 128.956 24V21.856C128.465 22.3893 127.836 22.8267 127.068 23.168C126.3 23.488 125.372 23.648 124.284 23.648C123.196 23.648 122.236 23.488 121.404 23.168C120.572 22.848 119.878 22.368 119.324 21.728C118.769 21.088 118.332 20.3093 118.012 19.392C117.713 18.4747 117.532 17.4187 117.468 16.224C117.446 15.6693 117.446 15.104 117.468 14.528C117.532 13.3973 117.713 12.3733 118.012 11.456C118.31 10.5173 118.737 9.728 119.292 9.088C119.868 8.42667 120.572 7.92533 121.404 7.584C122.236 7.22133 123.196 7.04 124.284 7.04C125.436 7.04 126.417 7.264 127.228 7.712C128.06 8.13867 128.742 8.68267 129.276 9.344V8.16C129.276 7.94667 129.35 7.76533 129.5 7.616C129.649 7.44533 129.841 7.36 130.076 7.36H133.756C133.99 7.36 134.182 7.44533 134.332 7.616C134.502 7.76533 134.588 7.94667 134.588 8.16V23.552C134.588 25.1733 134.257 26.5387 133.596 27.648C132.956 28.7573 132.006 29.6 130.748 30.176C129.51 30.752 128.006 31.04 126.236 31.04ZM126.012 19.488C126.694 19.488 127.249 19.3387 127.676 19.04C128.102 18.7413 128.412 18.3573 128.604 17.888C128.817 17.4187 128.934 16.9173 128.956 16.384C128.977 16.1493 128.988 15.8187 128.988 15.392C128.988 14.9653 128.977 14.6453 128.956 14.432C128.934 13.8773 128.817 13.3653 128.604 12.896C128.412 12.4267 128.102 12.0533 127.676 11.776C127.249 11.4773 126.694 11.328 126.012 11.328C125.308 11.328 124.742 11.4773 124.316 11.776C123.91 12.0747 123.612 12.48 123.42 12.992C123.249 13.504 123.142 14.0693 123.1 14.688C123.078 15.1573 123.078 15.6373 123.1 16.128C123.142 16.7467 123.249 17.312 123.42 17.824C123.612 18.336 123.91 18.7413 124.316 19.04C124.742 19.3387 125.308 19.488 126.012 19.488ZM146.037 24.32C143.519 24.32 141.514 23.6373 140.021 22.272C138.527 20.9067 137.749 18.88 137.685 16.192C137.685 16.0427 137.685 15.8507 137.685 15.616C137.685 15.3813 137.685 15.2 137.685 15.072C137.749 13.3867 138.122 11.9467 138.805 10.752C139.509 9.536 140.469 8.61867 141.685 8C142.922 7.36 144.362 7.04 146.005 7.04C147.882 7.04 149.429 7.41333 150.645 8.16C151.882 8.90667 152.81 9.92 153.429 11.2C154.047 12.48 154.357 13.9413 154.357 15.584V16.352C154.357 16.5867 154.282 16.7787 154.133 16.928C153.983 17.0773 153.791 17.152 153.557 17.152H143.317C143.317 17.1733 143.317 17.2053 143.317 17.248C143.317 17.2907 143.317 17.3333 143.317 17.376C143.338 17.9947 143.445 18.56 143.637 19.072C143.85 19.584 144.149 19.9893 144.533 20.288C144.938 20.5867 145.429 20.736 146.005 20.736C146.431 20.736 146.783 20.672 147.061 20.544C147.359 20.3947 147.605 20.2347 147.797 20.064C147.989 19.872 148.138 19.712 148.245 19.584C148.437 19.3493 148.586 19.2107 148.693 19.168C148.821 19.104 149.013 19.072 149.269 19.072H153.237C153.45 19.072 153.621 19.136 153.749 19.264C153.898 19.392 153.962 19.5627 153.941 19.776C153.919 20.1387 153.738 20.576 153.397 21.088C153.055 21.6 152.554 22.112 151.893 22.624C151.253 23.1147 150.442 23.52 149.461 23.84C148.479 24.16 147.338 24.32 146.037 24.32ZM143.317 13.984H148.725V13.92C148.725 13.216 148.618 12.6187 148.405 12.128C148.213 11.616 147.903 11.2213 147.477 10.944C147.071 10.6667 146.581 10.528 146.005 10.528C145.45 10.528 144.97 10.6667 144.565 10.944C144.159 11.2213 143.85 11.616 143.637 12.128C143.423 12.6187 143.317 13.216 143.317 13.92V13.984ZM165.321 24C165.087 24 164.895 23.9253 164.745 23.776C164.596 23.6053 164.521 23.4133 164.521 23.2V2.4C164.521 2.16533 164.596 1.97333 164.745 1.824C164.895 1.67467 165.087 1.6 165.321 1.6H169.545C169.78 1.6 169.972 1.67467 170.121 1.824C170.271 1.97333 170.345 2.16533 170.345 2.4V19.168H180.041C180.276 19.168 180.468 19.2533 180.617 19.424C180.767 19.5733 180.841 19.7653 180.841 20V23.2C180.841 23.4133 180.767 23.6053 180.617 23.776C180.468 23.9253 180.276 24 180.041 24H165.321ZM190.787 24.32C188.269 24.32 186.264 23.6373 184.771 22.272C183.277 20.9067 182.499 18.88 182.435 16.192C182.435 16.0427 182.435 15.8507 182.435 15.616C182.435 15.3813 182.435 15.2 182.435 15.072C182.499 13.3867 182.872 11.9467 183.555 10.752C184.259 9.536 185.219 8.61867 186.435 8C187.672 7.36 189.112 7.04 190.755 7.04C192.632 7.04 194.179 7.41333 195.395 8.16C196.632 8.90667 197.56 9.92 198.179 11.2C198.797 12.48 199.107 13.9413 199.107 15.584V16.352C199.107 16.5867 199.032 16.7787 198.883 16.928C198.733 17.0773 198.541 17.152 198.307 17.152H188.067C188.067 17.1733 188.067 17.2053 188.067 17.248C188.067 17.2907 188.067 17.3333 188.067 17.376C188.088 17.9947 188.195 18.56 188.387 19.072C188.6 19.584 188.899 19.9893 189.283 20.288C189.688 20.5867 190.179 20.736 190.755 20.736C191.181 20.736 191.533 20.672 191.811 20.544C192.109 20.3947 192.355 20.2347 192.547 20.064C192.739 19.872 192.888 19.712 192.995 19.584C193.187 19.3493 193.336 19.2107 193.443 19.168C193.571 19.104 193.763 19.072 194.019 19.072H197.987C198.2 19.072 198.371 19.136 198.499 19.264C198.648 19.392 198.712 19.5627 198.691 19.776C198.669 20.1387 198.488 20.576 198.147 21.088C197.805 21.6 197.304 22.112 196.643 22.624C196.003 23.1147 195.192 23.52 194.211 23.84C193.229 24.16 192.088 24.32 190.787 24.32ZM188.067 13.984H193.475V13.92C193.475 13.216 193.368 12.6187 193.155 12.128C192.963 11.616 192.653 11.2213 192.227 10.944C191.821 10.6667 191.331 10.528 190.755 10.528C190.2 10.528 189.72 10.6667 189.315 10.944C188.909 11.2213 188.6 11.616 188.387 12.128C188.173 12.6187 188.067 13.216 188.067 13.92V13.984ZM207.099 24.32C205.947 24.32 204.912 24.1067 203.995 23.68C203.099 23.232 202.384 22.6347 201.851 21.888C201.317 21.1413 201.051 20.2987 201.051 19.36C201.051 17.8453 201.669 16.6507 202.907 15.776C204.144 14.88 205.787 14.272 207.835 13.952L211.835 13.344V12.896C211.835 12.128 211.675 11.5413 211.355 11.136C211.035 10.7307 210.448 10.528 209.595 10.528C208.997 10.528 208.507 10.6453 208.123 10.88C207.76 11.1147 207.472 11.4347 207.259 11.84C207.067 12.1173 206.8 12.256 206.459 12.256H202.875C202.64 12.256 202.459 12.192 202.331 12.064C202.203 11.9147 202.149 11.744 202.171 11.552C202.171 11.168 202.309 10.7307 202.587 10.24C202.885 9.728 203.333 9.22667 203.931 8.736C204.528 8.24533 205.296 7.84 206.235 7.52C207.173 7.2 208.315 7.04 209.659 7.04C211.024 7.04 212.197 7.2 213.179 7.52C214.16 7.84 214.96 8.288 215.579 8.864C216.197 9.44 216.645 10.1227 216.923 10.912C217.221 11.68 217.371 12.5333 217.371 13.472V23.2C217.371 23.4133 217.285 23.6053 217.115 23.776C216.965 23.9253 216.784 24 216.571 24H212.859C212.624 24 212.432 23.9253 212.283 23.776C212.133 23.6053 212.059 23.4133 212.059 23.2V22.08C211.781 22.4853 211.408 22.8587 210.939 23.2C210.469 23.5413 209.915 23.808 209.275 24C208.656 24.2133 207.931 24.32 207.099 24.32ZM208.603 20.672C209.221 20.672 209.776 20.544 210.267 20.288C210.779 20.0107 211.173 19.5947 211.451 19.04C211.749 18.464 211.899 17.7493 211.899 16.896V16.448L209.179 16.928C208.176 17.0987 207.44 17.3653 206.971 17.728C206.523 18.0693 206.299 18.4747 206.299 18.944C206.299 19.3067 206.405 19.616 206.619 19.872C206.832 20.128 207.109 20.3307 207.451 20.48C207.813 20.608 208.197 20.672 208.603 20.672ZM221.782 24C221.547 24 221.355 23.9253 221.206 23.776C221.056 23.6053 220.982 23.4133 220.982 23.2V8.16C220.982 7.94667 221.056 7.76533 221.206 7.616C221.355 7.44533 221.547 7.36 221.782 7.36H225.462C225.696 7.36 225.888 7.44533 226.038 7.616C226.208 7.76533 226.294 7.94667 226.294 8.16V9.44C226.848 8.77867 227.52 8.26667 228.31 7.904C229.12 7.54133 230.027 7.36 231.03 7.36H232.438C232.672 7.36 232.864 7.43467 233.014 7.584C233.163 7.73333 233.238 7.92533 233.238 8.16V11.456C233.238 11.6693 233.163 11.8613 233.014 12.032C232.864 12.1813 232.672 12.256 232.438 12.256H229.334C228.459 12.256 227.776 12.5013 227.286 12.992C226.816 13.4613 226.582 14.1333 226.582 15.008V23.2C226.582 23.4133 226.496 23.6053 226.326 23.776C226.176 23.9253 225.984 24 225.75 24H221.782ZM236.313 24C236.078 24 235.886 23.9253 235.737 23.776C235.588 23.6053 235.513 23.4133 235.513 23.2V8.16C235.513 7.92533 235.588 7.73333 235.737 7.584C235.886 7.43467 236.078 7.36 236.313 7.36H239.993C240.228 7.36 240.42 7.43467 240.569 7.584C240.74 7.73333 240.825 7.92533 240.825 8.16V9.376C241.358 8.71467 242.073 8.16 242.969 7.712C243.865 7.264 244.921 7.04 246.137 7.04C247.374 7.04 248.462 7.31733 249.401 7.872C250.361 8.42667 251.108 9.23733 251.641 10.304C252.196 11.3707 252.473 12.6933 252.473 14.272V23.2C252.473 23.4133 252.398 23.6053 252.249 23.776C252.1 23.9253 251.908 24 251.673 24H247.641C247.428 24 247.236 23.9253 247.065 23.776C246.916 23.6053 246.841 23.4133 246.841 23.2V14.464C246.841 13.4613 246.596 12.6933 246.105 12.16C245.636 11.6053 244.932 11.328 243.993 11.328C243.118 11.328 242.414 11.6053 241.881 12.16C241.369 12.6933 241.113 13.4613 241.113 14.464V23.2C241.113 23.4133 241.028 23.6053 240.857 23.776C240.708 23.9253 240.526 24 240.313 24H236.313ZM256.876 24C256.641 24 256.449 23.9253 256.299 23.776C256.15 23.6053 256.076 23.4133 256.076 23.2V8.16C256.076 7.92533 256.15 7.73333 256.299 7.584C256.449 7.43467 256.641 7.36 256.876 7.36H260.652C260.886 7.36 261.078 7.43467 261.228 7.584C261.377 7.73333 261.452 7.92533 261.452 8.16V23.2C261.452 23.4133 261.377 23.6053 261.228 23.776C261.078 23.9253 260.886 24 260.652 24H256.876ZM256.844 4.96C256.609 4.96 256.417 4.88533 256.268 4.736C256.118 4.58667 256.044 4.39467 256.044 4.16V1.28C256.044 1.06667 256.118 0.885332 256.268 0.735998C256.417 0.565332 256.609 0.48 256.844 0.48H260.684C260.897 0.48 261.078 0.565332 261.228 0.735998C261.398 0.885332 261.484 1.06667 261.484 1.28V4.16C261.484 4.39467 261.398 4.58667 261.228 4.736C261.078 4.88533 260.897 4.96 260.684 4.96H256.844ZM267.032 24C266.797 24 266.605 23.9253 266.456 23.776C266.306 23.6053 266.232 23.4133 266.232 23.2V8.16C266.232 7.92533 266.306 7.73333 266.456 7.584C266.605 7.43467 266.797 7.36 267.032 7.36H270.712C270.946 7.36 271.138 7.43467 271.288 7.584C271.458 7.73333 271.544 7.92533 271.544 8.16V9.376C272.077 8.71467 272.792 8.16 273.688 7.712C274.584 7.264 275.64 7.04 276.856 7.04C278.093 7.04 279.181 7.31733 280.12 7.872C281.08 8.42667 281.826 9.23733 282.36 10.304C282.914 11.3707 283.192 12.6933 283.192 14.272V23.2C283.192 23.4133 283.117 23.6053 282.968 23.776C282.818 23.9253 282.626 24 282.392 24H278.36C278.146 24 277.954 23.9253 277.784 23.776C277.634 23.6053 277.56 23.4133 277.56 23.2V14.464C277.56 13.4613 277.314 12.6933 276.824 12.16C276.354 11.6053 275.65 11.328 274.712 11.328C273.837 11.328 273.133 11.6053 272.6 12.16C272.088 12.6933 271.832 13.4613 271.832 14.464V23.2C271.832 23.4133 271.746 23.6053 271.576 23.776C271.426 23.9253 271.245 24 271.032 24H267.032ZM294.954 31.04C293.312 31.04 291.946 30.8267 290.858 30.4C289.792 29.9733 288.938 29.4613 288.298 28.864C287.68 28.2667 287.232 27.6693 286.954 27.072C286.677 26.496 286.528 26.0373 286.506 25.696C286.485 25.4613 286.56 25.2587 286.73 25.088C286.901 24.9387 287.104 24.864 287.338 24.864H291.402C291.616 24.864 291.786 24.9173 291.914 25.024C292.042 25.1307 292.149 25.3013 292.234 25.536C292.362 25.7707 292.512 26.0053 292.682 26.24C292.853 26.496 293.098 26.7093 293.418 26.88C293.76 27.0507 294.218 27.136 294.794 27.136C295.434 27.136 295.968 27.0293 296.394 26.816C296.821 26.624 297.141 26.2933 297.354 25.824C297.568 25.376 297.674 24.768 297.674 24V21.856C297.184 22.3893 296.554 22.8267 295.786 23.168C295.018 23.488 294.09 23.648 293.002 23.648C291.914 23.648 290.954 23.488 290.122 23.168C289.29 22.848 288.597 22.368 288.042 21.728C287.488 21.088 287.05 20.3093 286.73 19.392C286.432 18.4747 286.25 17.4187 286.186 16.224C286.165 15.6693 286.165 15.104 286.186 14.528C286.25 13.3973 286.432 12.3733 286.73 11.456C287.029 10.5173 287.456 9.728 288.01 9.088C288.586 8.42667 289.29 7.92533 290.122 7.584C290.954 7.22133 291.914 7.04 293.002 7.04C294.154 7.04 295.136 7.264 295.946 7.712C296.778 8.13867 297.461 8.68267 297.994 9.344V8.16C297.994 7.94667 298.069 7.76533 298.218 7.616C298.368 7.44533 298.56 7.36 298.794 7.36H302.474C302.709 7.36 302.901 7.44533 303.05 7.616C303.221 7.76533 303.306 7.94667 303.306 8.16V23.552C303.306 25.1733 302.976 26.5387 302.314 27.648C301.674 28.7573 300.725 29.6 299.466 30.176C298.229 30.752 296.725 31.04 294.954 31.04ZM294.73 19.488C295.413 19.488 295.968 19.3387 296.394 19.04C296.821 18.7413 297.13 18.3573 297.322 17.888C297.536 17.4187 297.653 16.9173 297.674 16.384C297.696 16.1493 297.706 15.8187 297.706 15.392C297.706 14.9653 297.696 14.6453 297.674 14.432C297.653 13.8773 297.536 13.3653 297.322 12.896C297.13 12.4267 296.821 12.0533 296.394 11.776C295.968 11.4773 295.413 11.328 294.73 11.328C294.026 11.328 293.461 11.4773 293.034 11.776C292.629 12.0747 292.33 12.48 292.138 12.992C291.968 13.504 291.861 14.0693 291.818 14.688C291.797 15.1573 291.797 15.6373 291.818 16.128C291.861 16.7467 291.968 17.312 292.138 17.824C292.33 18.336 292.629 18.7413 293.034 19.04C293.461 19.3387 294.026 19.488 294.73 19.488Z" fill="url(#paint0_linear_250_35)"/>
<defs>
<linearGradient id="paint0_linear_250_35" x1="-2" y1="-6" x2="317.5" y2="32" gradientUnits="userSpaceOnUse">
<stop stop-color="#DB1F90"/>
<stop offset="0.510417" stop-color="#6F0FBB"/>
<stop offset="1" stop-color="#4361EE"/>
</linearGradient>
</defs>
</svg>
