<svg width="40" height="40" viewBox="0 0 40 40" fill="none" xmlns="http://www.w3.org/2000/svg">
<circle cx="20" cy="20" r="19.5" stroke="#777777" stroke-linecap="round" stroke-linejoin="round" stroke-dasharray="6 6"/>
<path d="M20.2 27.2C19.0267 27.2 18 27.0067 17.12 26.62C16.24 26.22 15.56 25.6133 15.08 24.8C14.6 23.9733 14.36 22.9267 14.36 21.66V13.5C14.36 13.3533 14.4067 13.2333 14.5 13.14C14.5933 13.0467 14.7133 13 14.86 13H17.04C17.1867 13 17.3067 13.0467 17.4 13.14C17.4933 13.2333 17.54 13.3533 17.54 13.5V21.64C17.54 22.6267 17.7733 23.36 18.24 23.84C18.7067 24.32 19.36 24.56 20.2 24.56C21.0267 24.56 21.6733 24.32 22.14 23.84C22.6067 23.36 22.84 22.6267 22.84 21.64V13.5C22.84 13.3533 22.8867 13.2333 22.98 13.14C23.0867 13.0467 23.2067 13 23.34 13H25.54C25.6733 13 25.7867 13.0467 25.88 13.14C25.9733 13.2333 26.02 13.3533 26.02 13.5V21.66C26.02 22.9267 25.78 23.9733 25.3 24.8C24.82 25.6133 24.1467 26.22 23.28 26.62C22.4133 27.0067 21.3867 27.2 20.2 27.2Z" fill="#777777"/>
</svg>
