<svg width="40" height="28" viewBox="0 0 40 28" fill="none" xmlns="http://www.w3.org/2000/svg">
<path d="M23.6364 10.2928V7.3271C24.6364 6.92004 25.6594 6.61475 26.7055 6.41122C27.7503 6.20768 28.8485 6.10592 30 6.10592C30.7879 6.10592 31.5606 6.16407 32.3182 6.28037C33.0758 6.39668 33.8182 6.54206 34.5455 6.71651V9.50779C33.8182 9.24611 33.0836 9.05013 32.3418 8.91988C31.5988 8.78845 30.8182 8.72274 30 8.72274C28.8485 8.72274 27.7424 8.86114 26.6818 9.13794C25.6212 9.41358 24.6061 9.79855 23.6364 10.2928ZM23.6364 19.8878V16.9221C24.6364 16.5151 25.6594 16.2098 26.7055 16.0062C27.7503 15.8027 28.8485 15.7009 30 15.7009C30.7879 15.7009 31.5606 15.7591 32.3182 15.8754C33.0758 15.9917 33.8182 16.1371 34.5455 16.3115V19.1028C33.8182 18.8411 33.0836 18.6451 32.3418 18.5149C31.5988 18.3835 30.8182 18.3178 30 18.3178C28.8485 18.3178 27.7424 18.4486 26.6818 18.7103C25.6212 18.972 24.6061 19.3645 23.6364 19.8878ZM23.6364 15.0903V12.1246C24.6364 11.7175 25.6594 11.4123 26.7055 11.2087C27.7503 11.0052 28.8485 10.9034 30 10.9034C30.7879 10.9034 31.5606 10.9616 32.3182 11.0779C33.0758 11.1942 33.8182 11.3396 34.5455 11.514V14.3053C33.8182 14.0436 33.0836 13.8476 32.3418 13.7174C31.5988 13.586 30.8182 13.5202 30 13.5202C28.8485 13.5202 27.7424 13.6586 26.6818 13.9355C25.6212 14.2111 24.6061 14.5961 23.6364 15.0903ZM10 20.9346C11.4242 20.9346 12.8109 21.0869 14.16 21.3916C15.5079 21.6975 16.8485 22.1558 18.1818 22.7664V5.58255C16.9394 4.88473 15.6212 4.36137 14.2273 4.01246C12.8333 3.66355 11.4242 3.4891 10 3.4891C8.90909 3.4891 7.82606 3.59086 6.75091 3.79439C5.67455 3.99792 4.63636 4.30322 3.63636 4.71028V21.9813C4.69697 21.6324 5.7503 21.3707 6.79636 21.1963C7.84121 21.0218 8.90909 20.9346 10 20.9346ZM21.8182 22.7664C23.1515 22.1558 24.4927 21.6975 25.8418 21.3916C27.1897 21.0869 28.5758 20.9346 30 20.9346C31.0909 20.9346 32.1594 21.0218 33.2055 21.1963C34.2503 21.3707 35.303 21.6324 36.3636 21.9813V4.71028C35.3636 4.30322 34.3261 3.99792 33.2509 3.79439C32.1745 3.59086 31.0909 3.4891 30 3.4891C28.5758 3.4891 27.1667 3.66355 25.7727 4.01246C24.3788 4.36137 23.0606 4.88473 21.8182 5.58255V22.7664ZM20 27.9128C18.5455 26.8079 16.9697 25.9502 15.2727 25.3396C13.5758 24.729 11.8182 24.4237 10 24.4237C8.39394 24.4237 6.71212 24.7144 4.95455 25.2959C3.19697 25.8775 1.54545 26.7788 0 28V2.70405C1.33333 1.83178 2.90182 1.16303 4.70545 0.697819C6.50788 0.232607 8.27273 0 10 0C11.7576 0 13.4776 0.218069 15.16 0.654206C16.8412 1.09034 18.4545 1.74455 20 2.61682C21.5455 1.74455 23.1594 1.09034 24.8418 0.654206C26.523 0.218069 28.2424 0 30 0C31.7273 0 33.4927 0.232607 35.2964 0.697819C37.0988 1.16303 38.6667 1.83178 40 2.70405V28C38.4849 26.7788 36.8412 25.8775 35.0691 25.2959C33.2958 24.7144 31.6061 24.4237 30 24.4237C28.1818 24.4237 26.4242 24.729 24.7273 25.3396C23.0303 25.9502 21.4545 26.8079 20 27.9128Z" fill="#38B000"/>
</svg>
